PathFileType	4	(X/Y/Z)	E:\Marcel_BSc\Hannes_22_01_2025\22-01-2025\sumo_dl_3.trc
DataRate	CameraRate	NumFrames	NumMarkers	Units	OrigDataRate	OrigDataStartFrame	OrigNumFrames
200.0	200.0	6	48	mm	200.0	4810	2673	
Frame#	Time	FHD			LBHD			RBHD			RBAR			LBAR			RSACR			LSACR			USACR			LASI			C7			CLAV			T10			RSHO			LSHO			LTHI1			LTHI3			LTHI2			LTIB1			LTIB2			LTIB3			LMMAL			LLMAL			LHEE			LMT1			LMT5			LMT3			RTHI1			RTHI2			RTHI3			RTIB1			RTIB3			RTIB2			RLMAL			RMMAL			RHEE			RMT5			RMT1			RMT3			LDUPA			LMUPA			LUUPA			LUL			LRAD			LRFIN			RRAD			RMUPA			RDUPA			RUUPA			
		X1	Y1	Z1	X2	Y2	Z2	X3	Y3	Z3	X4	Y4	Z4	X5	Y5	Z5	X6	Y6	Z6	X7	Y7	Z7	X8	Y8	Z8	X9	Y9	Z9	X10	Y10	Z10	X11	Y11	Z11	X12	Y12	Z12	X13	Y13	Z13	X14	Y14	Z14	X15	Y15	Z15	X16	Y16	Z16	X17	Y17	Z17	X18	Y18	Z18	X19	Y19	Z19	X20	Y20	Z20	X21	Y21	Z21	X22	Y22	Z22	X23	Y23	Z23	X24	Y24	Z24	X25	Y25	Z25	X26	Y26	Z26	X27	Y27	Z27	X28	Y28	Z28	X29	Y29	Z29	X30	Y30	Z30	X31	Y31	Z31	X32	Y32	Z32	X33	Y33	Z33	X34	Y34	Z34	X35	Y35	Z35	X36	Y36	Z36	X37	Y37	Z37	X38	Y38	Z38	X39	Y39	Z39	X40	Y40	Z40	X41	Y41	Z41	X42	Y42	Z42	X43	Y43	Z43	X44	Y44	Z44	X45	Y45	Z45	X46	Y46	Z46	X47	Y47	Z47	X48	Y48	Z48	
4810	24.04	-12.040058	1625.9673	-973.18213	70.521164	1605.8219	-867.13696	94.819923	1608.3518	-1060.405	132.19791	237.8351	-2064.5083	119.15482	250.01883	156.56487	283.74973	960.25726	-982.58502	281.43649	964.41315	-923.83667	278.9646	976.24921	-955.42786				238.15005	1427.8633	-946.28125	59.93837	1376.2321	-959.12805	263.82831	1117.5247	-950.78784	169.07178	1392.7759	-1154.1373	152.32643	1388.1884	-750.66315	187.85574	770.18433	-707.32648	205.46709	708.51166	-690.87885	157.79694	718.78687	-677.08093	219.5302	275.7872	-539.42511	261.48627	271.50217	-569.66895	245.82002	215.40779	-541.60291	179.776	77.06395	-564.74609	244.21631	87.260063	-499.59961	265.85049	26.561596	-549.89246	76.245102	41.470936	-452.67783	149.15172	30.273346	-392.57828	101.49475	32.449345	-410.12524	221.89522	756.125	-1190.1901	189.74026	710.43115	-1226.043	231.63901	692.64258	-1205.1499	206.06555	282.41824	-1357.9819	222.72714	220.75272	-1369.2234	251.7339	270.15067	-1339.5796	233.28447	83.065506	-1403.4434	158.27084	77.721962	-1342.1592	254.13388	29.878363	-1351.1665	147.46715	24.3237	-1503.4851	64.769333	36.832775	-1459.165	94.974251	28.540998	-1496.6694	76.975151	1159.1097	-656.19739	95.198196	1216.9973	-670.02673	55.365192	1222.4978	-699.76044	-83.928986	869.39526	-649.71796	-107.31511	883.57416	-690.60626	-150.27844	789.46039	-716.44153	-64.905838	882.20453	-1268.1483	142.80943	1189.0833	-1262.7576	99.768509	1162.9181	-1262.7871	111.64983	1237.0256	-1238.9111
4811	24.045	-10.282908	1627.1937	-972.67279	72.305946	1606.2079	-867.17163	96.697708	1608.6384	-1060.4232	132.23222	237.88753	-2064.4658	119.15507	250.01251	156.5663	282.86798	960.10968	-982.42365	280.50122	964.24359	-923.79907	278.14798	976.00525	-955.28369				239.18546	1427.4087	-946.28802	60.703495	1376.6997	-959.15991	263.49359	1117.1105	-950.67444	170.80998	1392.8137	-1153.9147	153.9391	1388.3735	-750.80267	187.28586	770.13788	-707.48499	205.05	708.41119	-691.15265	157.35388	718.6756	-677.23328	219.58083	275.68332	-539.64551	261.57672	271.40042	-569.8512	245.95174	215.26184	-541.75616	179.72397	77.071114	-564.72675	244.22548	87.242386	-499.64838	265.86603	26.542433	-549.89307	76.256783	41.467991	-452.68399	149.17235	30.285494	-392.54645	101.4964	32.464523	-410.12341	221.25291	756.21198	-1189.9521	189.47908	710.75494	-1226.5398	231.20697	692.72583	-1204.8024	206.2531	282.42154	-1357.6929	222.83736	220.72321	-1369.0341	251.87674	270.08121	-1339.3625	233.34985	83.105888	-1403.3888	158.28369	77.726807	-1342.1481	254.11903	29.845242	-1351.16	147.47592	24.324934	-1503.4916	64.698494	36.880268	-1459.2583	95.00573	28.547661	-1496.6827	78.708328	1160.0294	-655.18982	97.141739	1217.7909	-669.3194	56.930317	1223.4191	-698.62592	-84.078568	871.60419	-645.4967	-108.26736	886.07843	-685.89343	-152.0966	792.07098	-711.05994	-65.616356	884.86285	-1272.1641	144.53073	1189.869	-1263.3051	101.28672	1163.9709	-1263.9519	113.40458	1237.928	-1239.5862
4812	24.05	-8.1831722	1627.6796	-973.12976	74.04953	1606.5284	-867.21045	98.598183	1608.8134	-1060.4813	132.24191	237.83661	-2064.4155	119.16096	250.01942	156.56184	281.98526	960.1662	-982.41858	279.69223	964.0611	-923.71039	277.11145	975.9751	-955.27698				240.22234	1427.0293	-946.25171	61.500374	1377.0643	-959.23901	263.13254	1116.7733	-950.48816	172.54257	1392.8307	-1153.6743	155.51366	1388.5507	-750.9491	186.85211	770.06897	-707.60547	204.67709	708.37946	-691.3598	157.04027	718.59918	-677.34589	219.77998	275.88513	-539.84106	261.65311	271.29626	-570.04022	245.91956	215.17915	-541.9328	179.73082	77.016861	-564.68854	244.28331	87.198853	-499.67044	265.9053	26.48859	-549.91345	76.293427	41.451393	-452.69269	149.16473	30.248842	-392.54477	101.34039	32.744972	-409.9975	220.66179	756.2569	-1189.7897	188.75488	710.48511	-1225.3656	230.77956	692.73615	-1204.5588	206.40469	282.3862	-1357.3999	222.87323	220.65829	-1368.8683	252.05669	270.16299	-1339.2372	233.32414	83.064964	-1403.4082	158.31143	77.709702	-1342.1417	254.10587	29.837353	-1351.157	147.50397	24.292252	-1503.5333	64.7416	36.855999	-1459.256	95.039131	28.539179	-1496.7351	80.525017	1160.9994	-654.06763	99.016045	1218.6274	-668.63757	58.453846	1224.4001	-697.39807	-84.039223	873.7771	-641.1933	-109.06683	888.56305	-681.11182	-154.02904	794.84888	-705.56775	-66.239731	887.59937	-1276.2114	146.2541	1190.6829	-1263.8666	102.87317	1165.0956	-1265.0944	115.21318	1238.777	-1240.33
4813	24.055	-6.3369927	1628.4135	-973.14514	75.765182	1606.8025	-867.23309	100.4204	1609.0111	-1060.4775	132.22772	237.69141	-2064.8313	119.15582	250.01529	156.56161	281.25641	959.54962	-981.96307	278.83566	963.97937	-923.62183	276.45978	975.56696	-954.98413				241.18834	1426.6371	-946.20703	62.203541	1377.4744	-959.24121	262.88586	1116.3719	-950.32843	174.25735	1392.8369	-1153.3752	157.04681	1388.6993	-751.0835	186.36461	770.00708	-707.75537	204.28708	708.34973	-691.57306	156.69693	718.46692	-677.44171	219.90569	275.79034	-539.97931	261.74677	271.19797	-570.19977	245.97714	215.09084	-542.06555	179.72134	76.972878	-564.64417	244.30827	87.126648	-499.67673	265.90372	26.480385	-549.87897	76.316025	41.419239	-452.67688	149.15503	30.22698	-392.51819	101.49677	32.455898	-410.08786	220.11494	756.25397	-1189.5859	188.30222	710.3631	-1225.1094	230.39201	692.71204	-1204.3097	206.50934	282.34189	-1357.1334	223.06628	220.69542	-1368.674	252.19595	270.17685	-1339.0178	233.38869	83.111053	-1403.333	158.32248	77.694313	-1342.1016	254.09605	29.825911	-1351.1425	147.47452	24.272945	-1503.5378	64.729301	36.875114	-1459.2834	95.027924	28.545555	-1496.7261	82.403343	1161.9624	-652.64001	100.80256	1219.4216	-667.93719	60.036373	1225.2789	-696.21539	-83.852715	875.79279	-636.83423	-109.71357	891.03955	-676.12329	-156.09462	797.8183	-699.83398	-66.76902	890.35114	-1280.4597	147.95125	1191.5116	-1264.3727	104.3933	1166.1644	-1266.2513	116.93576	1239.6918	-1240.9449
4814	24.06	-4.4951663	1629.009	-973.30524	77.440613	1607.0952	-867.28735	102.19908	1609.1968	-1060.4979	132.2531	238.07024	-2064.7432	119.14323	250.00456	156.57042	280.55997	959.40814	-981.83392	278.10004	963.81268	-923.55353	275.64853	975.40332	-954.84912				242.1615	1426.2297	-946.18549	62.932274	1377.8418	-959.27301	262.51865	1115.9913	-950.20154	175.93657	1392.8032	-1153.1406	158.54861	1388.8259	-751.19617	185.88402	769.98358	-707.82257	203.97163	708.33801	-691.78485	156.37024	718.3869	-677.5174	220.07289	275.7374	-540.08453	261.77448	271.11557	-570.3595	246.07228	215.06984	-542.11914	179.7308	76.94828	-564.62665	244.31062	87.100616	-499.67255	265.90271	26.476978	-549.86206	76.3349	41.41692	-452.66833	149.21532	30.242395	-392.47614	101.49164	32.464775	-410.04868	219.8643	756.32898	-1189.7909	187.84975	710.27289	-1224.8092	229.94289	692.80243	-1203.9655	206.59372	282.33817	-1356.8602	223.09003	220.63771	-1368.5044	252.22581	270.01309	-1338.5824	233.34798	83.102394	-1403.319	158.33638	77.676003	-1342.0717	254.08841	29.81719	-1351.1276	147.45956	24.267195	-1503.5298	64.724815	36.880646	-1459.2875	95.027351	28.544327	-1496.7198	84.126892	1162.9594	-651.46002	102.73941	1220.2261	-667.22986	61.516815	1226.2195	-694.98102	-83.87484	878.10315	-632.60919	-110.35371	893.55969	-671.0462	-157.97331	800.82227	-693.90234	-67.300705	893.18365	-1284.7496	149.69513	1192.2434	-1265.0013	105.90855	1167.3298	-1267.3405	118.71506	1240.568	-1241.6331
4815	24.065	-2.7492075	1629.7074	-973.31891	79.041992	1607.3632	-867.34552	103.94747	1609.3556	-1060.5414	132.21985	237.64761	-2064.78	119.14678	250.00906	156.56804	279.77567	959.23865	-981.71191	277.33844	963.69952	-923.47797	274.89151	975.14465	-954.72638				243.07236	1425.8235	-946.16156	63.477913	1378.431	-959.1546	262.33572	1115.6274	-950.06097	177.58897	1392.7537	-1152.9027	160.00699	1388.9753	-751.34241	185.5731	769.93121	-707.84583	203.67905	708.25757	-691.98267	156.09871	718.30646	-677.53876	220.18152	275.73065	-540.18176	261.83224	271.04529	-570.48102	246.10587	214.9903	-542.22864	179.75462	76.928986	-564.63513	244.34575	87.090843	-499.6423	265.95279	26.449839	-549.86523	76.359596	41.449322	-452.66855	148.43192	30.362059	-392.33469	101.33282	32.763554	-409.90945	219.38333	756.34711	-1189.5872	187.38524	710.22485	-1224.5109	229.52231	692.79584	-1203.6531	206.65752	282.30984	-1356.6342	223.07431	220.62602	-1368.3342	252.2377	269.89523	-1338.3243	233.40504	83.138321	-1403.288	158.36974	77.660576	-1342.0594	254.09164	29.815874	-1351.1283	147.47937	24.282192	-1503.5547	64.834862	36.859295	-1459.262	95.028954	28.535807	-1496.7473	85.963623	1163.8981	-650.26776	104.55048	1221.0704	-666.51233	62.957367	1226.9985	-693.54395	-83.480087	880.17529	-627.88867	-111.21388	896.38007	-665.88354	-160.00333	803.93597	-687.71588	-67.721649	896.02332	-1289.2085	151.41536	1193.0052	-1265.6198	107.56578	1168.3325	-1268.6156	120.4872	1241.4379	-1242.3296
